# xmcd
#
# Track frame offsets:
#	150
#	16552
#	34697
#	52612
#	72290
#	89237
#	109512
#	126805
#	145800
#	164865
#	182512
#	206317
#	226882
#
# Disc length: 3283 seconds
#
# Revision: 0
# Processed by: cddbd v1.5.2PL0 Copyright (c) Steve Scherf et al.
# Submitted via: EasyCDDAExtractor 15.3.0.1
#
DISCID=a40cd10d
DTITLE=Olga Tañon - Sobrevivir
DYEAR=2002
DGENRE=Latin
TTITLE0=Por Tu Amor
TTITLE1=Mentiras
TTITLE2=Caramelo
TTITLE3=A Partir De Hoy
TTITLE4=Asi Es La Vida
TTITLE5=No Podras
TTITLE6=Beso A Beso
TTITLE7=Quien Diria (A Duo Con Luis Fonsi)
TTITLE8=Ojos Negros
TTITLE9=Sobrevivir
TTITLE10=Angel De Mi Corazon
TTITLE11=No Podras (Version Ranchera)
TTITLE12=Caramelo (Sugar's Dance Mix)
EXTD=
EXTT0=
EXTT1=
EXTT2=
EXTT3=
EXTT4=
EXTT5=
EXTT6=
EXTT7=
EXTT8=
EXTT9=
EXTT10=
EXTT11=
EXTT12=
PLAYORDER=
